<?xml version="1.0" encoding="UTF-8"?>
<svg version="1.1" xmlns="http://www.w3.org/2000/svg" width="1024" height="1024">
<path d="M0 0 C337.92 0 675.84 0 1024 0 C1024 337.92 1024 675.84 1024 1024 C686.08 1024 348.16 1024 0 1024 C0 686.08 0 348.16 0 0 Z " fill="#FDFEFE" transform="translate(0,0)"/>
<path d="M0 0 C50.82 0 101.64 0 154 0 C154 22.44 154 44.88 154 68 C151.36 68 148.72 68 146 68 C146 48.2 146 28.4 146 8 C100.79 8 55.58 8 9 8 C9 15.26 9 22.52 9 30 C18.24 30 27.48 30 37 30 C37.33 48.81 37.66 67.62 38 87 C42.455 81.555 42.455 81.555 47 76 C51.625 70.8125 51.625 70.8125 53.89453125 68.31640625 C57.90831026 63.90050466 61.81755043 59.39648506 65.6796875 54.84765625 C72.88216178 46.3757667 80.13150388 37.86849612 88 30 C90.59359322 29.91148471 93.16039691 29.88474055 95.75390625 29.90234375 C96.52935287 29.9037587 97.3047995 29.90517365 98.10374451 29.90663147 C100.59003494 29.91224655 103.0762366 29.92480154 105.5625 29.9375 C107.24413933 29.94251306 108.92578006 29.9470763 110.60742188 29.95117188 C114.73831566 29.96222087 118.86914276 29.97949555 123 30 C120.47575293 33.84347804 117.94870414 37.32279282 114.8125 40.6875 C111.60753634 44.18572831 108.5391547 47.7430704 105.5625 51.4375 C104.80582031 52.34113281 104.04914063 53.24476563 103.26953125 54.17578125 C100.94423273 56.97959199 100.94423273 56.97959199 98.94921875 60.10546875 C93.51923333 67.56084838 93.51923333 67.56084838 88.64990234 68.40966797 C84.96644166 68.61759977 81.30666334 68.57424545 77.61914062 68.52441406 C72.00209007 68.55634483 72.00209007 68.55634483 66.95703125 70.86328125 C64.6809035 73.45363548 62.84675976 76.09007365 61 79 C59.5003255 80.87132158 57.97908602 82.72555128 56.4375 84.5625 C55.7053125 85.46742188 54.973125 86.37234375 54.21875 87.3046875 C50.9257499 91.30498692 47.47871594 95.16109003 44 99 C45.66077299 103.14689982 48.65980945 106.06716167 51.6875 109.25 C52.78201327 110.41725351 53.87576745 111.58521929 54.96875 112.75390625 C55.4946875 113.31480957 56.020625 113.87571289 56.5625 114.45361328 C58.86692341 116.9325905 61.08130104 119.48543016 63.29296875 122.046875 C66.00621199 125.1512723 68.80336227 128.1797765 71.59375 131.21484375 C74 134 74 134 75.00390917 136.20135397 C76.6782632 139.31695626 78.09178704 140.94208758 81 143 C87.95560722 144.84698041 95.5555204 144.19804907 102.6839447 144.12025452 C104.95451835 144.12830901 107.22508085 144.14031304 109.49561507 144.15593141 C115.73970935 144.18742784 121.9825239 144.16278881 128.22656071 144.12913358 C134.26685469 144.10535362 140.30692186 144.12381882 146.34720043 144.14130635 C158.70247835 144.17561623 171.0574003 144.16810836 183.41267204 144.13676643 C195.64586157 144.10587086 207.87883725 144.09356242 220.11206245 144.10607719 C221.25299726 144.10722873 221.25299726 144.10722873 222.41698126 144.10840353 C226.27980352 144.11239895 230.14262534 144.11672644 234.0054471 144.12118178 C261.36574897 144.15214152 288.72589165 144.14142789 316.08618164 144.10620117 C342.66628549 144.07207433 369.24629062 144.05682731 395.82641602 144.06713867 C396.64573203 144.06744899 397.46504804 144.06775931 398.30919181 144.06807904 C406.53710119 144.07121625 414.76501037 144.07473728 422.99291947 144.0785395 C439.75411387 144.08627634 456.51530874 144.09145145 473.27650452 144.09507751 C474.4324831 144.09533233 474.4324831 144.09533233 475.61181479 144.0955923 C527.07456447 144.10664288 578.53728692 144.05779022 630 144 C630 146.31 630 148.62 630 151 C376.065 151.495 376.065 151.495 117 152 C120.63 155.96 124.26 159.92 128 164 C128 164.33 128 164.66 128 165 C122.38124337 165.32439528 116.76805778 165.55855241 111.14208984 165.71411133 C109.23454789 165.77900576 107.32764043 165.86737012 105.42236328 165.98071289 C88.76119669 166.94613445 88.76119669 166.94613445 83.15673828 162.24609375 C80.51718067 159.59650099 78.27412868 156.73666428 76.15582275 153.65933228 C74.3789755 151.10843942 72.36813761 148.75815871 70.375 146.375 C69.30765625 145.0446875 69.30765625 145.0446875 68.21875 143.6875 C65.0682682 139.87142345 61.70933889 136.26428005 58.32421875 132.65625 C56.14859863 130.169827 54.46534525 127.64931654 52.6875 124.875 C50.48974061 121.92138625 49.47904379 121.08928912 45.79614258 120.40283203 C44.63236084 120.35497559 43.4685791 120.30711914 42.26953125 120.2578125 C41.09624268 120.19996582 39.9229541 120.14211914 38.71411133 120.08251953 C37.81845459 120.05528809 36.92279785 120.02805664 36 120 C32.46190123 149.87286872 32.46190123 149.87286872 39.03076172 177.85253906 C44.06576504 183.13828382 50.13714023 185.61168041 56.97558594 187.87255859 C61.72665157 189.64366136 65.55060606 192.5370956 69.625 195.5 C74.13217195 198.81917944 74.13217195 198.81917944 79.453125 200.11328125 C83.32676862 198.42004746 86.66372955 196.0982959 90.125 193.6875 C91.73032111 192.59162331 93.33714292 191.49794235 94.9453125 190.40625 C96.18909668 189.56126953 96.18909668 189.56126953 97.45800781 188.69921875 C101.58387401 185.94124442 105.79070092 183.31564105 110 180.6875 C116.47136723 176.63593544 122.83092135 172.50390318 129 168 C132.40062014 169.40715316 133.89229698 171.02868228 136 174 C126.28365602 180.71407574 116.53791075 187.36219142 106.59619141 193.73876953 C97.31578496 199.7017948 88.16455733 205.86105562 79 212 C76.25472911 210.67765261 73.69807568 209.22566487 71.1484375 207.55859375 C70.39159668 207.06520508 69.63475586 206.57181641 68.85498047 206.06347656 C68.03658691 205.5269043 67.21819336 204.99033203 66.375 204.4375 C65.51922363 203.87901367 64.66344727 203.32052734 63.78173828 202.74511719 C60.8527774 200.8326872 57.92614535 198.91673507 55 197 C53.85026355 196.24690276 52.70052387 195.49381047 51.55078125 194.74072266 C50.9621933 194.35517715 50.37360535 193.96963165 49.7671814 193.57240295 C47.38892132 192.01477598 45.01026485 190.45775475 42.63165283 188.90066528 C40.88965823 187.75960162 39.14863704 186.61706421 37.40771484 185.47436523 C36.34246582 184.77641846 35.2772168 184.07847168 34.1796875 183.359375 C33.22819824 182.73514648 32.27670898 182.11091797 31.29638672 181.46777344 C29.09226236 180.00243084 29.09226236 180.00243084 27 179 C27 156.89 27 134.78 27 112 C30.96 112 34.92 112 39 112 C37.7625 110.494375 36.525 108.98875 35.25 107.4375 C29.44008099 100.33957662 23.71934904 93.17096047 18 86 C14.16916615 87.27694462 13.11561105 89.03810958 10.625 92.1875 C9.83351562 93.1775 9.04203125 94.1675 8.2265625 95.1875 C7.49179688 96.115625 6.75703125 97.04375 6 98 C4.36150874 100.03080607 2.70720191 102.02604779 1 104 C0.67 104 0.34 104 0 104 C0 69.68 0 35.36 0 0 Z " fill="#354480" transform="translate(185,420)"/>
<path d="M0 0 C4.62 0 9.24 0 14 0 C14 7.26 14 14.52 14 22 C15.65 20.35 17.3 18.7 19 17 C19.81339844 16.19820312 20.62679688 15.39640625 21.46484375 14.5703125 C22.28082031 13.76335938 23.09679687 12.95640625 23.9375 12.125 C25.26201172 10.83335937 25.26201172 10.83335937 26.61328125 9.515625 C28.65779861 7.36068362 30.06063242 5.3658377 31.625 2.875 C32.953125 1.20703125 32.953125 1.20703125 35 0 C40.39992598 -0.58624694 45.59313623 -0.40455156 51 0 C47.36323962 5.17962842 43.44073082 9.69383917 38.90234375 14.1015625 C36.4031117 16.59566266 34.20444155 19.24444807 32 22 C33.4236809 25.05327319 35.11326038 27.66605604 37.1171875 30.37109375 C37.72433594 31.19287109 38.33148438 32.01464844 38.95703125 32.86132812 C39.58996094 33.71146484 40.22289062 34.56160156 40.875 35.4375 C41.50019531 36.28376953 42.12539063 37.13003906 42.76953125 38.00195312 C45.77717208 42.06195032 48.82833802 46.06594425 52 50 C57.35987728 39.58068232 62.19232425 28.98746298 66.875 18.25 C67.88686272 15.93909828 68.89972418 13.62863676 69.91287231 11.31829834 C70.53598429 9.89640508 71.15815806 8.47410021 71.77926636 7.05133057 C73.89361756 2.21276487 73.89361756 2.21276487 75 0 C79.95 0 84.9 0 90 0 C95.95661358 12.90990463 101.86629662 25.84095937 107.6875 38.8125 C108.48075684 40.56397339 108.48075684 40.56397339 109.29003906 42.35083008 C110.01852051 43.98121216 110.01852051 43.98121216 110.76171875 45.64453125 C111.19444092 46.60721924 111.62716309 47.56990723 112.07299805 48.56176758 C113 51 113 51 113 54 C108.05 54 103.1 54 98 54 C94 45.25 94 45.25 94 43 C86.08 43 78.16 43 70 43 C69.67 44.65 69.34 46.3 69 48 C68.04605164 50.02237052 67.05464649 52.0282696 66 54 C62.03595885 54.27466706 58.07567797 54.47268038 54.10424805 54.60424805 C52.10072163 54.68594152 50.09983904 54.82582455 48.09960938 54.96679688 C38.4901495 55.23305395 38.4901495 55.23305395 34.17553711 51.6628418 C31.88802771 48.87243954 29.92619512 46.04770382 28 43 C26.82853409 41.46678185 25.64429639 39.94306725 24.4375 38.4375 C22 35.2601626 22 35.2601626 22 33 C19.09197539 35.21928194 17.04687238 36.92969143 15 40 C14.70547416 42.38677076 14.5071783 44.78626094 14.375 47.1875 C14.25125 49.435625 14.1275 51.68375 14 54 C9.38 54 4.76 54 0 54 C0 36.18 0 18.36 0 0 Z " fill="#353572" transform="translate(264,499)"/>
<path d="M0 0 C3.96 0 7.92 0 12 0 C14.7793782 3.16195143 16.19369632 5.33696285 18 9 C19.13154054 10.90413017 20.27522135 12.80108786 21.4296875 14.69140625 C22.58074573 16.64689722 23.72916158 18.60394586 24.875 20.5625 C25.76445312 22.07553711 25.76445312 22.07553711 26.671875 23.61914062 C28.11692907 26.07806327 29.55958541 28.53835773 31 31 C35.47860233 24.49909473 39.49976843 17.81244786 43.375 10.9375 C44.19291016 9.49600586 44.19291016 9.49600586 45.02734375 8.02539062 C46.35456323 5.68529312 47.67771257 3.34288793 49 1 C53.29 1 57.58 1 62 1 C62 18.49 62 35.98 62 54 C57.71 54 53.42 54 49 54 C48.67 44.76 48.34 35.52 48 26 C44.13699545 33.14805786 44.13699545 33.14805786 40.28173828 40.30029297 C39.79946777 41.18861816 39.31719727 42.07694336 38.8203125 42.9921875 C38.32805176 43.90339355 37.83579102 44.81459961 37.32861328 45.75341797 C36 48 36 48 34 50 C31.69 50 29.38 50 27 50 C21.06 39.605 21.06 39.605 15 29 C14.67 37.58 14.34 46.16 14 55 C9.38 55 4.76 55 0 55 C0 36.85 0 18.7 0 0 Z " fill="#363875" transform="translate(382,498)"/>
<path d="M0 0 C5.115 -0.061875 10.23 -0.12375 15.5 -0.1875 C17.89668945 -0.22846802 17.89668945 -0.22846802 20.34179688 -0.27026367 C36.018597 -0.36207365 36.018597 -0.36207365 42.8125 5.375 C47.47012106 10.96414527 48.59984121 14.75894671 48.421875 21.984375 C47.63448472 27.61275736 44.91317961 31.34535817 40.6875 35 C39.8521875 35.495 39.8521875 35.495 39 36 C40.43227625 40.13852452 42.47942543 43.21222014 45.125 46.6875 C49 51.78291815 49 51.78291815 49 54 C38.02834076 55.69623198 38.02834076 55.69623198 33 54 C30.27284595 51.49778443 28.77817713 48.33989412 27.11181641 45.08105469 C25.014429 41.095968 25.014429 41.095968 21.23828125 38.84765625 C18.1642213 38.52674915 18.1642213 38.52674915 14 39 C14 43.95 14 48.9 14 54 C9.38 54 4.76 54 0 54 C0 36.18 0 18.36 0 0 Z " fill="#458B45" transform="translate(733,499)"/>
<path d="M0 0 C5.259375 -0.103125 10.51875 -0.20625 15.9375 -0.3125 C17.578396 -0.35802002 19.21929199 -0.40354004 20.90991211 -0.45043945 C28.93291844 -0.52648458 35.56003192 -0.3707014 42 5 C47.28055363 10.67659515 47.41003181 14.82599502 47.33984375 22.4375 C46.86914173 27.37175568 45.50707024 30.51050906 42 34 C35.71953721 38.87844604 29.36217828 39.15166069 21.6875 39.0625 C20.94693359 39.05798828 20.20636719 39.05347656 19.44335938 39.04882812 C17.62887101 39.03712175 15.81442466 39.01918898 14 39 C14 43.95 14 48.9 14 54 C9.38 54 4.76 54 0 54 C0 36.18 0 18.36 0 0 Z " fill="#313676" transform="translate(455,499)"/>
<path d="M0 0 C4.62 0 9.24 0 14 0 C14 7.26 14 14.52 14 22 C14.66 22 15.32 22 16 22 C16.38176392 21.13604614 16.38176392 21.13604614 16.77124023 20.25463867 C18.13546 17.75144584 19.6935159 15.98698327 21.66015625 13.92578125 C22.37107422 13.17619141 23.08199219 12.42660156 23.81445312 11.65429688 C24.55630859 10.88150391 25.29816406 10.10871094 26.0625 9.3125 C26.80822266 8.52810547 27.55394531 7.74371094 28.32226562 6.93554688 C34.92005994 0.00216993 34.92005994 0.00216993 38.59765625 -0.09765625 C40.08596867 -0.0909822 41.57426432 -0.07902183 43.0625 -0.0625 C43.82111328 -0.05798828 44.57972656 -0.05347656 45.36132812 -0.04882812 C47.24091871 -0.0370068 49.12046899 -0.01907078 51 0 C46.97886344 5.85189792 42.37576491 10.77729591 37.26953125 15.703125 C35.28967251 17.70683746 33.61837963 19.70158463 32 22 C33.49537863 25.26720986 35.37021417 27.96078848 37.5546875 30.80859375 C38.25207031 31.72060547 38.94945312 32.63261719 39.66796875 33.57226562 C40.39628906 34.51779297 41.12460937 35.46332031 41.875 36.4375 C42.59558594 37.37916016 43.31617188 38.32082031 44.05859375 39.29101562 C48.07734635 44.54417198 48.07734635 44.54417198 52.23876953 49.68383789 C54 52 54 52 54 54 C39.12214765 55.52159854 39.12214765 55.52159854 34.3359375 52.08984375 C32.31962939 49.49113588 30.66066897 46.8373041 29 44 C27.68839393 42.3161814 26.35608586 40.64820712 25 39 C22 35.25 22 35.25 22 33 C19.00416544 34.57222649 16.9429682 36.21165381 15 39 C14.07619048 44.02321428 13.95460479 48.90276604 14 54 C9.38 54 4.76 54 0 54 C0 36.18 0 18.36 0 0 Z " fill="#3C7C40" transform="translate(617,499)"/>
<path d="M0 0 C4.95 0 9.9 0 15 0 C19.37089198 9.25002722 23.62582377 18.54913486 27.81924438 27.88076782 C28.39225972 29.15563681 28.96595576 30.4302001 29.54037476 31.70443726 C32.86208066 39.07678602 36.0597572 46.46696919 39 54 C33.72 54 28.44 54 23 54 C21.68 50.7 20.36 47.4 19 44 C11.41 44 3.82 44 -4 44 C-5.65 47.3 -7.3 50.6 -9 54 C-9.66 54 -10.32 54 -11 54 C-12.76171875 52.0234375 -12.76171875 52.0234375 -14.6875 49.375 C-15.33074219 48.51648438 -15.97398437 47.65796875 -16.63671875 46.7734375 C-18.39550326 43.19539452 -17.93047492 41.85968533 -17 38 C-15.93941591 35.14378936 -14.69997479 32.38132728 -13.4375 29.609375 C-13.0861499 28.82355042 -12.7347998 28.03772583 -12.37280273 27.22808838 C-11.25505941 24.7324031 -10.12764703 22.24122363 -9 19.75 C-8.24155605 18.06017911 -7.48373687 16.37007765 -6.7265625 14.6796875 C-1.3733171 2.74663421 -1.3733171 2.74663421 0 0 Z " fill="#3F8243" transform="translate(690,499)"/>
<path d="M0 0 C4.95 0 9.9 0 15 0 C15.03738281 2.46855469 15.07476563 4.93710937 15.11328125 7.48046875 C15.15953688 9.88005261 15.21075571 12.27948297 15.26245117 14.67895508 C15.29563655 16.34227108 15.32368834 18.00569796 15.34643555 19.66918945 C15.38009999 22.06509499 15.4324194 24.45999035 15.48828125 26.85546875 C15.49467117 27.5952446 15.5010611 28.33502045 15.50764465 29.09721375 C15.63329971 33.54308862 16.2548976 36.46144732 19 40 C22.45031261 41.72515631 26.22716304 41.49677924 30 41 C33.03215675 38.80168636 33.81654398 37.55036806 35 34 C35.15322359 31.41669771 35.25706889 28.85507761 35.31640625 26.26953125 C35.33718735 25.51911057 35.35796844 24.76868988 35.37937927 23.99552917 C35.44469926 21.60127816 35.50367792 19.20691861 35.5625 16.8125 C35.60570193 15.18813987 35.64931676 13.56379067 35.69335938 11.93945312 C35.8011389 7.95974498 35.90034215 3.97995299 36 0 C40.95 0 45.9 0 51 0 C51.09245306 4.80242288 51.17189182 9.60168896 51.21972656 14.40429688 C51.23969079 16.03363578 51.2668723 17.66290445 51.30175781 19.29199219 C51.71103584 38.91326251 51.71103584 38.91326251 45.140625 47.40234375 C38.30060031 52.95633074 32.43671127 55.61903565 23.51171875 55.27734375 C15.3055349 54.3712177 9.54075666 51.11438793 4 45 C0.20026295 38.87139186 -0.14847439 33.14269988 -0.09765625 26.07421875 C-0.0962413 25.32662796 -0.09482635 24.57903717 -0.09336853 23.80879211 C-0.08779764 21.43498635 -0.0752506 19.06127697 -0.0625 16.6875 C-0.05748123 15.07226699 -0.05291899 13.4570325 -0.04882812 11.84179688 C-0.03869117 7.89446478 -0.0191103 3.94733953 0 0 Z " fill="#383B78" transform="translate(508,499)"/>
<path d="M0 0 C4.62 0 9.24 0 14 0 C14 7.26 14 14.52 14 22 C15.65 20.35 17.3 18.7 19 17 C19.81339844 16.19820312 20.62679688 15.39640625 21.46484375 14.5703125 C22.28082031 13.76335938 23.09679687 12.95640625 23.9375 12.125 C25.26201172 10.83335937 25.26201172 10.83335937 26.61328125 9.515625 C28.65779861 7.36068362 30.06063242 5.3658377 31.625 2.875 C32.953125 1.20703125 32.953125 1.20703125 35 0 C40.39992598 -0.58624694 45.59313623 -0.40455156 51 0 C47.36323962 5.17962842 43.44073082 9.69383917 38.90234375 14.1015625 C36.4031117 16.59566266 34.20444155 19.24444807 32 22 C33.42962529 25.07049956 35.13383716 27.68960233 37.15234375 30.40625 C37.76400391 31.23253906 38.37566406 32.05882812 39.00585938 32.91015625 C39.64330078 33.76480469 40.28074219 34.61945312 40.9375 35.5 C41.57107422 36.35464844 42.20464844 37.20929687 42.85742188 38.08984375 C46.19043873 42.62909877 46.19043873 42.62909877 49.70532227 47.02539062 C51 49 51 49 51 53 C45.87778482 54.16218328 40.97126223 54.96440456 36 53 C30.26652293 48.22948921 25.61822705 41.49408064 22 35 C22 34.34 22 33.68 22 33 C19.09197539 35.21928194 17.04687238 36.92969143 15 40 C14.70547416 42.38677076 14.5071783 44.78626094 14.375 47.1875 C14.25125 49.435625 14.1275 51.68375 14 54 C9.38 54 4.76 54 0 54 C0 36.18 0 18.36 0 0 Z " fill="#32316E" transform="translate(264,499)"/>
<path d="M0 0 C50.49 0 100.98 0 153 0 C153 22.44 153 44.88 153 68 C150.36 68 147.72 68 145 68 C145 47.87 145 27.74 145 7 C99.46 7 53.92 7 7 7 C7 11.29 7 15.58 7 20 C6.72854048 22.34133835 6.43111809 24.68274025 6 27 C3.5625 26.625 3.5625 26.625 1 26 C-2.87871686 18.24256629 0 8.67307455 0 0 Z " fill="#333272" transform="translate(186,420)"/>
<path d="M0 0 C0.89396484 -0.01095703 1.78792969 -0.02191406 2.70898438 -0.03320312 C8.98049485 0.03561374 13.03295342 1.39040323 18.4375 4.5625 C17.76579194 8.3688457 16.71003436 11.91456816 15.4375 15.5625 C14.77105469 15.3459375 14.10460937 15.129375 13.41796875 14.90625 C6.78301913 12.90184564 0.3850391 11.61900704 -6.5625 12.5625 C-7.2225 13.2225 -7.8825 13.8825 -8.5625 14.5625 C-8.24208603 17.16530568 -8.24208603 17.16530568 -7.5625 19.5625 C-6.99144531 19.72105469 -6.42039062 19.87960937 -5.83203125 20.04296875 C15.63881832 26.22138492 15.63881832 26.22138492 20.4375 32.5625 C22.20721928 36.10193856 22.07694007 39.70741417 21.4375 43.5625 C18.53880404 49.47376927 14.33112794 52.88357821 8.4375 55.5625 C-2.01203395 58.11032706 -11.66738082 56.46359735 -21.5625 52.5625 C-22.5525 51.9025 -23.5425 51.2425 -24.5625 50.5625 C-23.89079194 46.7561543 -22.83503436 43.21043184 -21.5625 39.5625 C-15.8659188 41.41720085 -15.8659188 41.41720085 -13.34375 42.625 C-9.7835266 43.8250753 -6.45636912 43.77971588 -2.75 43.6875 C-1.71069336 43.67396484 -1.71069336 43.67396484 -0.65039062 43.66015625 C1.04572395 43.63676157 2.74165871 43.60089641 4.4375 43.5625 C5.0975 41.5825 5.7575 39.6025 6.4375 37.5625 C5.78265625 37.39234375 5.1278125 37.2221875 4.453125 37.046875 C-17.09561387 31.32489349 -17.09561387 31.32489349 -22.5625 25.5625 C-24.47445041 19.82664876 -24.49622472 13.75472325 -22.125 8.1875 C-15.66782452 1.57283244 -9.04584845 -0.242358 0 0 Z " fill="#363B7A" transform="translate(589.5625,497.4375)"/>
<path d="M0 0 C15.84 0 31.68 0 48 0 C48 3.63 48 7.26 48 11 C42.39 11 36.78 11 31 11 C31 25.19 31 39.38 31 54 C26.05 54 21.1 54 16 54 C16 39.81 16 25.62 16 11 C10.72 11 5.44 11 0 11 C0 7.37 0 3.74 0 0 Z " fill="#499147" transform="translate(783,499)"/>
<path d="M0 0 C1.57587891 0.54333984 1.57587891 0.54333984 3.18359375 1.09765625 C3.96863281 1.37480469 4.75367188 1.65195312 5.5625 1.9375 C5.2325 2.5975 4.9025 3.2575 4.5625 3.9375 C4.3349985 5.80806791 4.15287189 7.68435958 4 9.5625 C3.91621094 10.56539062 3.83242188 11.56828125 3.74609375 12.6015625 C3.65521484 13.75785156 3.65521484 13.75785156 3.5625 14.9375 C2.2425 14.9375 0.9225 14.9375 -0.4375 14.9375 C-0.6540625 16.6390625 -0.6540625 16.6390625 -0.875 18.375 C-1.4375 21.9375 -1.4375 21.9375 -2.4375 22.9375 C-4.36417507 23.02498207 -6.29401861 23.04447334 -8.22265625 23.03515625 C-9.39248047 23.03193359 -10.56230469 23.02871094 -11.76757812 23.02539062 C-13.61512695 23.01282227 -13.61512695 23.01282227 -15.5 23 C-17.35334961 22.99323242 -17.35334961 22.99323242 -19.24414062 22.98632812 C-22.30864117 22.97449608 -25.37304721 22.95801173 -28.4375 22.9375 C-28.4375 20.9575 -28.4375 18.9775 -28.4375 16.9375 C-27.7775 16.6075 -27.1175 16.2775 -26.4375 15.9375 C-26.7675 15.6075 -27.0975 15.2775 -27.4375 14.9375 C-27.47813832 13.27132885 -27.480221 11.60361905 -27.4375 9.9375 C-26.4475 9.6075 -25.4575 9.2775 -24.4375 8.9375 C-24.1075 10.9175 -23.7775 12.8975 -23.4375 14.9375 C-22.1175 14.9375 -20.7975 14.9375 -19.4375 14.9375 C-20.0975 14.6075 -20.7575 14.2775 -21.4375 13.9375 C-21.4375 12.2875 -21.4375 10.6375 -21.4375 8.9375 C-19.4575 8.9375 -17.4775 8.9375 -15.4375 8.9375 C-19.7275 7.2875 -24.0175 5.6375 -28.4375 3.9375 C-28.4375 3.2775 -28.4375 2.6175 -28.4375 1.9375 C-26.0889973 1.06398999 -23.73586566 0.21387498 -21.375 -0.625 C-20.71822266 -0.87185547 -20.06144531 -1.11871094 -19.38476562 -1.37304688 C-12.38345655 -3.82178059 -6.91116824 -2.40726085 0 0 Z " fill="#CBCCCF" transform="translate(777.4375,579.0625)"/>
<path d="M0 0 C2.64 0 5.28 0 8 0 C8 17.82 8 35.64 8 54 C5.36 52.68 2.72 51.36 0 50 C0 33.5 0 17 0 0 Z " fill="#37336E" transform="translate(185,531)"/>
<path d="M0 0 C13.48539786 -0.40864842 13.48539786 -0.40864842 18 3 C19.54586876 6.09173752 19.29359521 8.59429552 19 12 C16.78136971 14.90717073 15.48055071 15.83981643 12 17 C7.99616868 17.13399703 4.0072645 17.04308887 0 17 C0 11.39 0 5.78 0 0 Z " fill="#F4F5F8" transform="translate(469,510)"/>
<path d="M0 0 C13.3107415 -0.4033558 13.3107415 -0.4033558 18 3 C19.84710505 4.84710505 19.34739293 7.42527454 19.5234375 9.89453125 C19 12 19 12 16.93359375 14.24609375 C11.62512905 17.41986292 6.04182445 16.2258626 0 16 C0 10.72 0 5.44 0 0 Z " fill="#F7FAF6" transform="translate(747,510)"/>
<path d="M0 0 C2.27825643 3.41738465 2.16964715 5.02922186 1.53515625 9.00390625 C0.35731863 13.3971546 -2.18118331 15.49477268 -5.9375 17.8125 C-8.99358544 18.99751272 -10.78397287 19.60843757 -14 19 C-15.875 17.5 -15.875 17.5 -17 15 C-16.90945059 9.29538687 -16.21067786 6.09371458 -12 2 C-7.86479329 -1.35287031 -5.10172657 -1.34762589 0 0 Z " fill="#5684B4" transform="translate(403,580)"/>
<path d="M0 0 C1.57587891 0.54333984 1.57587891 0.54333984 3.18359375 1.09765625 C3.96863281 1.37480469 4.75367188 1.65195312 5.5625 1.9375 C3.51898293 6.02453414 -3.08446912 7.39944901 -7.2734375 8.859375 C-12.69905007 10.48779229 -16.46664637 9.45484973 -21.4375 6.9375 C-22.81095189 6.3712305 -24.18580597 5.80834112 -25.5625 5.25 C-26.985625 4.6003125 -26.985625 4.6003125 -28.4375 3.9375 C-28.4375 3.2775 -28.4375 2.6175 -28.4375 1.9375 C-26.0889973 1.06398999 -23.73586566 0.21387498 -21.375 -0.625 C-20.71822266 -0.87185547 -20.06144531 -1.11871094 -19.38476562 -1.37304688 C-12.38345655 -3.82178059 -6.91116824 -2.40726085 0 0 Z " fill="#C1C3C5" transform="translate(777.4375,579.0625)"/>
<path d="M0 0 C2.14576637 -0.02685938 4.29162645 -0.04633088 6.4375 -0.0625 C7.63246094 -0.07410156 8.82742188 -0.08570313 10.05859375 -0.09765625 C13 0 13 0 14 1 C14.3125 3.875 14.3125 3.875 14 7 C12.125 8.875 12.125 8.875 10 10 C9.34 10 8.68 10 8 10 C8 10.66 8 11.32 8 12 C8.61875 12.2475 9.2375 12.495 9.875 12.75 C12.35068687 14.20628639 12.95125002 15.37812506 14 18 C10.56049636 17.38801624 8.48435515 16.07941153 5.75 13.9375 C5.04359375 13.38964844 4.3371875 12.84179688 3.609375 12.27734375 C3.07828125 11.85582031 2.5471875 11.43429687 2 11 C1.67 13.31 1.34 15.62 1 18 C0.01 18 -0.98 18 -2 18 C-1.855625 17.071875 -1.71125 16.14375 -1.5625 15.1875 C-0.83635037 10.14594684 -0.4312193 5.07370796 0 0 Z " fill="#4C7DAF" transform="translate(428,580)"/>
<path d="M0 0 C0.99 0 1.98 0 3 0 C2.48446121 6.49850211 1.53332291 12.66226532 0 19 C-0.66 19 -1.32 19 -2 19 C-2 15.37 -2 11.74 -2 8 C-2.928125 9.32 -3.85625 10.64 -4.8125 12 C-6.39453125 14.25 -6.39453125 14.25 -8 16 C-8.99 16 -9.98 16 -11 16 C-11.66 13.36 -12.32 10.72 -13 8 C-13.18175781 8.71027344 -13.36351562 9.42054688 -13.55078125 10.15234375 C-13.80214844 11.07144531 -14.05351562 11.99054687 -14.3125 12.9375 C-14.55613281 13.85402344 -14.79976563 14.77054688 -15.05078125 15.71484375 C-15.36402344 16.46894531 -15.67726563 17.22304688 -16 18 C-16.99 18.33 -17.98 18.66 -19 19 C-18.51030705 12.38914524 -16.66557258 7.05022986 -14 1 C-12.68 1 -11.36 1 -10 1 C-9.67 4.3 -9.34 7.6 -9 11 C-8.34 11 -7.68 11 -7 11 C-6.773125 10.29875 -6.54625 9.5975 -6.3125 8.875 C-4.6486479 5.2303716 -2.76998691 2.90510822 0 0 Z " fill="#4A7BAC" transform="translate(509,579)"/>
<path d="M0 0 C2.31 0 4.62 0 7 0 C9.36039832 5.14995996 10.56781662 9.27126648 12 15 C18.6 15 25.2 15 32 15 C31.67 16.65 31.34 18.3 31 20 C30.34 20 29.68 20 29 20 C29 21.65 29 23.3 29 25 C27.68 25 26.36 25 25 25 C25 24.01 25 23.02 25 22 C18.07 21.505 18.07 21.505 11 21 C9.02 15.06 7.04 9.12 5 3 C3.35 2.67 1.7 2.34 0 2 C0 1.34 0 0.68 0 0 Z " fill="#BDBEC2" transform="translate(328,578)"/>
<path d="M0 0 C1.31291016 -0.03867187 1.31291016 -0.03867187 2.65234375 -0.078125 C5.0625 0.25 5.0625 0.25 6.875 1.61328125 C8.0625 3.25 8.0625 3.25 8.125 5.6875 C6.59695855 9.37277644 4.54593486 10.40969479 1.0625 12.25 C-2.3125 13 -2.3125 13 -4.9375 13.25 C-5.2675 15.23 -5.5975 17.21 -5.9375 19.25 C-6.9275 19.25 -7.9175 19.25 -8.9375 19.25 C-8.793125 18.13625 -8.64875 17.0225 -8.5 15.875 C-8.18452376 13.42567754 -7.91656318 10.9894114 -7.71875 8.52734375 C-7.6465625 7.63144531 -7.574375 6.73554687 -7.5 5.8125 C-7.43941406 4.96816406 -7.37882813 4.12382813 -7.31640625 3.25390625 C-7.19136719 2.59261719 -7.06632813 1.93132813 -6.9375 1.25 C-4.48367866 0.02308933 -2.73765897 0.04824069 0 0 Z " fill="#507DAF" transform="translate(522.9375,578.75)"/>
<path d="M0 0 C0.99 0 1.98 0 3 0 C3.83679277 2.62394306 4.66956942 5.24904384 5.5 7.875 C5.85771484 8.99455078 5.85771484 8.99455078 6.22265625 10.13671875 C8 15.7734375 8 15.7734375 8 18 C6.0625 17.6875 6.0625 17.6875 4 17 C3.67 16.01 3.34 15.02 3 14 C-0.3 14 -3.6 14 -7 14 C-7.33 15.32 -7.66 16.64 -8 18 C-8.99 18 -9.98 18 -11 18 C-10.51346311 13.30839426 -8.34585627 10.34476581 -5.5 6.75 C-5.08363281 6.20859375 -4.66726563 5.6671875 -4.23828125 5.109375 C-1.28039148 1.28039148 -1.28039148 1.28039148 0 0 Z " fill="#4274AD" transform="translate(698,580)"/>
<path d="M0 0 C0.66 0 1.32 0 2 0 C0.89309248 6.40593286 -0.33945169 12.71363856 -2 19 C-3.828125 18.81640625 -3.828125 18.81640625 -6 18 C-8.06307679 14.82394757 -9.42381364 11.4588534 -11 8 C-11.99 11.63 -12.98 15.26 -14 19 C-14.99 19 -15.98 19 -17 19 C-16.01 13.39 -15.02 7.78 -14 2 C-12.68 1.67 -11.36 1.34 -10 1 C-8.35 4.3 -6.7 7.6 -5 11 C-4.67 11 -4.34 11 -4 11 C-3.87882813 10.37351562 -3.75765625 9.74703125 -3.6328125 9.1015625 C-3.46523438 8.28429687 -3.29765625 7.46703125 -3.125 6.625 C-2.96257813 5.81289063 -2.80015625 5.00078125 -2.6328125 4.1640625 C-2 2 -2 2 0 0 Z " fill="#4C7EAD" transform="translate(661,579)"/>
<path d="M0 0 C1.32 0 2.64 0 4 0 C4.48220263 1.87422152 4.96061833 3.74941754 5.4375 5.625 C5.70433594 6.66914062 5.97117187 7.71328125 6.24609375 8.7890625 C6.96452539 11.84891124 7.51976716 14.8948051 8 18 C6.68 18 5.36 18 4 18 C4 16.35 4 14.7 4 13 C2.37247769 13.25523874 0.74796804 13.52974494 -0.875 13.8125 C-1.77992188 13.96332031 -2.68484375 14.11414063 -3.6171875 14.26953125 C-6.34412478 14.83051301 -6.34412478 14.83051301 -8 18 C-8.66 18 -9.32 18 -10 18 C-9.4771902 13.29471178 -7.33347409 9.98500202 -4.6875 6.1875 C-4.29626953 5.59001953 -3.90503906 4.99253906 -3.50195312 4.37695312 C-2.32421875 2.66796875 -2.32421875 2.66796875 0 0 Z " fill="#4074A8" transform="translate(480,580)"/>
<path d="M0 0 C0 0.66 0 1.32 0 2 C-0.71027344 2.18175781 -1.42054688 2.36351562 -2.15234375 2.55078125 C-3.07144531 2.80214844 -3.99054687 3.05351563 -4.9375 3.3125 C-6.31228516 3.67794922 -6.31228516 3.67794922 -7.71484375 4.05078125 C-8.46894531 4.36402344 -9.22304688 4.67726563 -10 5 C-10.33 5.99 -10.66 6.98 -11 8 C-8.36 8 -5.72 8 -3 8 C-3 8.66 -3 9.32 -3 10 C-5.95664519 11.4783226 -8.74229737 11.06032783 -12 11 C-12.33 12.65 -12.66 14.3 -13 16 C-9.7 16 -6.4 16 -3 16 C-3.66 16.99 -4.32 17.98 -5 19 C-7.6015625 19.29296875 -7.6015625 19.29296875 -10.625 19.1875 C-12.12933594 19.14689453 -12.12933594 19.14689453 -13.6640625 19.10546875 C-14.43492187 19.07066406 -15.20578125 19.03585937 -16 19 C-16.20734896 13.19422919 -15.5433043 8.59447809 -14 3 C-14 2.34 -14 1.68 -14 1 C-9.27685687 0.22887459 -4.78478822 -0.09764874 0 0 Z " fill="#638DB9" transform="translate(644,579)"/>
<path d="M0 0 C0 0.66 0 1.32 0 2 C-1.04800781 2.25523437 -1.04800781 2.25523437 -2.1171875 2.515625 C-3.48230469 2.87914062 -3.48230469 2.87914062 -4.875 3.25 C-6.23238281 3.59804688 -6.23238281 3.59804688 -7.6171875 3.953125 C-10.48841095 4.91182981 -10.48841095 4.91182981 -12 9 C-7.545 8.505 -7.545 8.505 -3 8 C-3.33 8.99 -3.66 9.98 -4 11 C-6.64 11.33 -9.28 11.66 -12 12 C-12.33 13.32 -12.66 14.64 -13 16 C-9.7 16 -6.4 16 -3 16 C-3 16.66 -3 17.32 -3 18 C-5.64458379 19.32229189 -7.67761301 19.09677194 -10.625 19.0625 C-11.62789062 19.05347656 -12.63078125 19.04445313 -13.6640625 19.03515625 C-14.43492187 19.02355469 -15.20578125 19.01195312 -16 19 C-16.23268915 12.71739294 -15.40454548 7.11980533 -14 1 C-9.27616037 0.34843591 -4.78025483 -0.11950637 0 0 Z " fill="#5180AF" transform="translate(594,579)"/>
<path d="M0 0 C0.99 0 1.98 0 3 0 C2.835 0.804375 2.67 1.60875 2.5 2.4375 C1.90752652 6.65887352 1.91493291 10.74664545 2 15 C3.98 15 5.96 15 8 15 C8.99 10.38 9.98 5.76 11 1 C12.32 0.67 13.64 0.34 15 0 C13.05830208 13.04364132 13.05830208 13.04364132 8.125 17.8125 C5.42188197 19.32306596 4.04752371 19.60950474 1 19 C-1.375 17.0625 -1.375 17.0625 -3 14 C-3.21441836 9.05944366 -2.15247782 4.44845417 0 0 Z " fill="#5480B1" transform="translate(410,580)"/>
<path d="M0 0 C0.66 0 1.32 0 2 0 C3.0067004 2.26807204 4.00551766 4.53907754 5 6.8125 C5.28617187 7.45509766 5.57234375 8.09769531 5.8671875 8.75976562 C7.13711041 11.67756469 8 13.78265714 8 17 C3.71 17 -0.58 17 -5 17 C-4.26045106 12.56270636 -3.49072221 9.23352326 -1.9375 5.125 C-1.57527344 4.15820312 -1.21304687 3.19140625 -0.83984375 2.1953125 C-0.56269531 1.47085938 -0.28554688 0.74640625 0 0 Z " fill="#EEEFF3" transform="translate(345,514)"/>
<path d="M0 0 C0.33 1.65 0.66 3.3 1 5 C0.34 5 -0.32 5 -1 5 C-1 4.34 -1 3.68 -1 3 C-6.40787385 4.09786425 -6.40787385 4.09786425 -10 8 C-7.98177083 8.45572917 -5.96354167 8.91145833 -3.9453125 9.3671875 C-2 10 -2 10 0 12 C-0.2309782 14.3867747 -0.76699218 15.70620753 -2.2578125 17.5859375 C-4.45183736 19.36673795 -5.8937641 19.48505537 -8.6875 19.6875 C-9.89986328 19.78611328 -9.89986328 19.78611328 -11.13671875 19.88671875 C-12.05904297 19.94279297 -12.05904297 19.94279297 -13 20 C-13.33 19.01 -13.66 18.02 -14 17 C-11.03 16.34 -8.06 15.68 -5 15 C-5 14.34 -5 13.68 -5 13 C-7.64 11.68 -10.28 10.36 -13 9 C-12.875 6.75 -12.875 6.75 -12 4 C-7.99539364 0.55417592 -5.25696028 -0.50066288 0 0 Z " fill="#5280B0" transform="translate(608,579)"/>
<path d="M0 0 C-0.33 1.32 -0.66 2.64 -1 4 C-1.9075 3.7525 -2.815 3.505 -3.75 3.25 C-7.08837848 2.61740673 -7.08837848 2.61740673 -9.375 4.9375 C-9.91125 5.618125 -10.4475 6.29875 -11 7 C-9.906875 7.103125 -8.81375 7.20625 -7.6875 7.3125 C-4 8 -4 8 -2 9.3125 C-1 11 -1 11 -0.9375 12.9375 C-2.61863716 16.2008839 -4.77918544 17.32994801 -8 19 C-11.875 19.25 -11.875 19.25 -15 19 C-15 18.01 -15 17.02 -15 16 C-12.03 15.34 -9.06 14.68 -6 14 C-6 13.34 -6 12.68 -6 12 C-8.64 10.68 -11.28 9.36 -14 8 C-13.79290782 4.27234075 -13.19733599 3.17854209 -10.375 0.625 C-6.34941573 -1.31324428 -4.27696185 -1.02647084 0 0 Z " fill="#5080AD" transform="translate(566,580)"/>
<path d="M0 0 C0.99 0 1.98 0 3 0 C2.67 1.010625 2.34 2.02125 2 3.0625 C0.92998679 6.75479911 0.84295845 10.15248207 1 14 C2.65 14.33 4.3 14.66 6 15 C8.78604822 11.07420478 9.63403352 7.55253907 10.375 2.890625 C10.58125 2.26671875 10.7875 1.6428125 11 1 C11.99 0.67 12.98 0.34 14 0 C14.52597542 6.18021117 13.0914343 10.63010373 10 16 C8.1875 18.125 8.1875 18.125 6 19 C2.375 18.9375 2.375 18.9375 -1 18 C-3.08894177 15.63858756 -3.01583959 13.83210029 -3.3125 10.6875 C-2.95181598 6.4314286 -1.8647743 3.80724753 0 0 Z " fill="#4F84B7" transform="translate(535,580)"/>
<path d="M0 0 C0.66 0.33 1.32 0.66 2 1 C1.67 2.32 1.34 3.64 1 5 C-1.31 4.67 -3.62 4.34 -6 4 C-6.66 5.32 -7.32 6.64 -8 8 C-5.36 8.99 -2.72 9.98 0 11 C0.25 13.3125 0.25 13.3125 0 16 C-2.45579457 18.98966296 -5.08004819 19.26560003 -8.75 19.6875 C-10.16570961 19.80395353 -11.58222818 19.91214662 -13 20 C-13 19.01 -13 18.02 -13 17 C-9.7 16.34 -6.4 15.68 -3 15 C-3.92966491 12.5736276 -3.92966491 12.5736276 -7.5 11.6875 C-8.655 11.130625 -9.81 10.57375 -11 10 C-11.9375 7.3125 -11.9375 7.3125 -12 5 C-7.94055829 1.13386504 -5.86469443 -0.79973106 0 0 Z " fill="#4E7DB0" transform="translate(624,579)"/>
<path d="M0 0 C2.44786227 2.44786227 3.30080644 4.74317342 4.625 7.9375 C5.07101562 8.99839844 5.51703125 10.05929687 5.9765625 11.15234375 C7 14 7 14 7 17 C2.71 17 -1.58 17 -6 17 C-5.15813297 12.79066487 -4.10885537 9.58732921 -2.4375 5.6875 C-1.75494141 4.08455078 -1.75494141 4.08455078 -1.05859375 2.44921875 C-0.53458984 1.23685547 -0.53458984 1.23685547 0 0 Z " fill="#F1F6EF" transform="translate(697,514)"/>
<path d="M0 0 C0.66 0 1.32 0 2 0 C2.33 1.98 2.66 3.96 3 6 C4.98 6.66 6.96 7.32 9 8 C9 8.33 9 8.66 9 9 C6.03 9 3.06 9 0 9 C0 9.99 0 10.98 0 12 C6.6 12 13.2 12 20 12 C20.33 10.35 20.66 8.7 21 7 C22.32 6.67 23.64 6.34 25 6 C25.04241723 8.33294775 25.04092937 10.66702567 25 13 C24 14 24 14 21.49975586 14.11352539 C20.41573486 14.10828857 19.33171387 14.10305176 18.21484375 14.09765625 C17.04501953 14.09443359 15.87519531 14.09121094 14.66992188 14.08789062 C12.82237305 14.07532227 12.82237305 14.07532227 10.9375 14.0625 C9.08415039 14.05573242 9.08415039 14.05573242 7.19335938 14.04882812 C4.12885883 14.03699608 1.06445279 14.02051173 -2 14 C-2 12.02 -2 10.04 -2 8 C-1.34 7.67 -0.68 7.34 0 7 C-0.33 6.67 -0.66 6.34 -1 6 C-1.125 3.5 -1.125 3.5 -1 1 C-0.67 0.67 -0.34 0.34 0 0 Z " fill="#AAB0B7" transform="translate(751,588)"/>
<path d="M0 0 C0.66 1.32 1.32 2.64 2 4 C1.01 4 0.02 4 -1 4 C-3.00309329 4.31421071 -5.00371336 4.6451046 -7 5 C-7.33 5.99 -7.66 6.98 -8 8 C-5.36 8.99 -2.72 9.98 0 11 C0.25 13.3125 0.25 13.3125 0 16 C-2.45579457 18.98966296 -5.08004819 19.26560003 -8.75 19.6875 C-10.16570961 19.80395353 -11.58222818 19.91214662 -13 20 C-13 19.01 -13 18.02 -13 17 C-9.7 16.34 -6.4 15.68 -3 15 C-3.92966491 12.5736276 -3.92966491 12.5736276 -7.5 11.6875 C-11 10 -11 10 -12.1875 7.5625 C-12 5 -12 5 -10.25 2.75 C-6.8363623 0.09494846 -4.19561643 -0.11339504 0 0 Z " fill="#5686B8" transform="translate(736,579)"/>
<path d="M0 0 C1 1 1 1 1.0625 3.5625 C1.041875 4.366875 1.02125 5.17125 1 6 C0.01 6.33 -0.98 6.66 -2 7 C-2 5.68 -2 4.36 -2 3 C-5.9712702 5.09594816 -8.55879544 7.20257069 -11 11 C-11 12.65 -11 14.3 -11 16 C-7.7 15.67 -4.4 15.34 -1 15 C-2 18 -2 18 -3.6875 19.1875 C-6.64599372 20.22697077 -8.88469348 20.33141559 -12 20 C-13.875 18.9375 -13.875 18.9375 -15 17 C-15.67363033 12.62140288 -15.24561679 9.87281111 -12.8125 6.25 C-9.26224264 1.79967739 -5.87732709 -0.65303634 0 0 Z " fill="#4780B0" transform="translate(469,579)"/>
<path d="M0 0 C1.67542976 0.28604898 3.34385343 0.61781233 5 1 C5.31215868 4.98002315 5.36368076 7.3565648 3.375 10.875 C0.5238072 13.42606724 -1.20253283 13.91744637 -5 14 C-5.66 13.34 -6.32 12.68 -7 12 C-6.90862339 7.88805249 -6.26183255 6.29456162 -3.5 3.1875 C-2.2625 2.1046875 -2.2625 2.1046875 -1 1 C-0.67 0.67 -0.34 0.34 0 0 Z " fill="#F2F5F5" transform="translate(396,582)"/>
<path d="M0 0 C0.88300781 0.36222656 1.76601563 0.72445312 2.67578125 1.09765625 C3.67158203 1.51337891 3.67158203 1.51337891 4.6875 1.9375 C1.40236931 4.9168548 -0.73801315 5.30013124 -5.125 5.1875 C-6.70474609 5.14882813 -6.70474609 5.14882813 -8.31640625 5.109375 C-11.71271303 4.91454123 -14.96727997 4.54572182 -18.3125 3.9375 C-18.3125 2.6175 -18.3125 1.2975 -18.3125 -0.0625 C-17.09023359 -0.59932668 -15.85921915 -1.11625532 -14.625 -1.625 C-13.94050781 -1.91503906 -13.25601562 -2.20507812 -12.55078125 -2.50390625 C-8.05822154 -3.62508607 -4.13661808 -1.70980214 0 0 Z " fill="#BCBBBF" transform="translate(358.3125,579.0625)"/>
<path d="M0 0 C-1.18379437 3.07786536 -2.44043395 4.40295021 -4.9375 6.6875 C-8.62116557 10.19103523 -9.77520688 14.16529033 -11 19 C-11.99 19 -12.98 19 -14 19 C-13.88140625 18.43152344 -13.7628125 17.86304688 -13.640625 17.27734375 C-12.59131086 10.99195202 -13.46423001 8.25008271 -17 3 C-17 2.34 -17 1.68 -17 1 C-15.125 1.125 -15.125 1.125 -13 2 C-11.75 5.0625 -11.75 5.0625 -11 8 C-10.34 8 -9.68 8 -9 8 C-8.7525 7.4225 -8.505 6.845 -8.25 6.25 C-6.15415198 2.47747356 -4.46699396 0 0 0 Z " fill="#437DAF" transform="translate(388,579)"/>
<path d="M0 0 C0 0.99 0 1.98 0 3 C-2.31 3.33 -4.62 3.66 -7 4 C-7.99 8.95 -8.98 13.9 -10 19 C-10.66 19 -11.32 19 -12 19 C-12.18451025 8.44191344 -12.18451025 8.44191344 -11 4 C-12.98 4 -14.96 4 -17 4 C-17 3.34 -17 2.68 -17 2 C-11.16200408 0.30167391 -6.06892629 -0.25287193 0 0 Z " fill="#5D88B6" transform="translate(682,579)"/>
<path d="M0 0 C0.33 0 0.66 0 1 0 C1 11.88 1 23.76 1 36 C-3.95 36 -8.9 36 -14 36 C-14.33 28.08 -14.66 20.16 -15 12 C-15.99 12.99 -16.98 13.98 -18 15 C-16.81323934 10.89198233 -16.10551666 9.10551666 -13 6 C-13 15.57 -13 25.14 -13 35 C-8.71 35 -4.42 35 0 35 C0 23.45 0 11.9 0 0 Z " fill="#CBCCD8" transform="translate(444,517)"/>
<path d="M0 0 C0.66 0 1.32 0 2 0 C1.30744705 5.42499815 0.22995712 10.67018581 -1 16 C2.3 15.67 5.6 15.34 9 15 C9 15.66 9 16.32 9 17 C4.50343896 19.24828052 0.92127034 19.16682272 -4 19 C-3.66944259 12.05829437 -3.24571282 6.20918975 0 0 Z " fill="#487BB0" transform="translate(712,579)"/>
<path d="M0 0 C0.70125 0.144375 1.4025 0.28875 2.125 0.4375 C3.548125 0.7159375 3.548125 0.7159375 5 1 C6.010625 1.226875 7.02125 1.45375 8.0625 1.6875 C11.33174461 2.03529198 12.21219551 1.52879601 15 0 C17.75 -0.125 17.75 -0.125 20 0 C19.875 1.875 19.875 1.875 19 4 C13.78879152 6.74274131 7.74864614 6.40390814 2 6 C1.34 5.67 0.68 5.34 0 5 C0 3.35 0 1.7 0 0 Z " fill="#B2B4B7" transform="translate(756,588)"/>
<path d="M0 0 C-0.99 1.65 -1.98 3.3 -3 5 C-3.66 4.34 -4.32 3.68 -5 3 C-4.67 2.67 -4.34 2.34 -4 2 C-8.03825066 1.87593993 -12.07575638 1.78544955 -16.11547852 1.7253418 C-17.48807102 1.70027383 -18.86053102 1.66620918 -20.23266602 1.62280273 C-22.21050696 1.56182469 -24.18934184 1.53638991 -26.16796875 1.51171875 C-27.35672607 1.48553467 -28.5454834 1.45935059 -29.77026367 1.43237305 C-33.91569611 2.16093382 -35.28425907 3.88339398 -38 7 C-38.721875 7.350625 -39.44375 7.70125 -40.1875 8.0625 C-42.55935503 9.28932157 -42.91336718 10.60940779 -44 13 C-45.625 14.75 -45.625 14.75 -47 16 C-47.66 15.67 -48.32 15.34 -49 15 C-37.91665732 -4.85076301 -19.9900647 -1.59104597 0 0 Z " fill="#3869A4" transform="translate(308,450)"/>
<path d="M0 0 C2.64 0 5.28 0 8 0 C7.360625 0.37125 6.72125 0.7425 6.0625 1.125 C3.36141928 3.58052793 3.31592995 5.44578805 3 9 C3.66 9 4.32 9 5 9 C5 9.99 5 10.98 5 12 C4.01 12 3.02 12 2 12 C1.67 13.98 1.34 15.96 1 18 C0.01 18 -0.98 18 -2 18 C-1.855625 16.88625 -1.71125 15.7725 -1.5625 14.625 C-0.95203629 9.75873212 -0.47014775 4.88153414 0 0 Z " fill="#5482B2" transform="translate(516,580)"/>
<path d="M0 0 C3.36720387 1.39332574 4.9859524 2.9789286 7 6 C1.66666667 10 1.66666667 10 -1.1875 10 C-3.49135176 8.72890937 -4.58610741 7.19153352 -6 5 C-4.02 3.35 -2.04 1.7 0 0 Z " fill="#27255C" transform="translate(314,588)"/>
<path d="M0 0 C0.33 0.66 0.66 1.32 1 2 C2.32 2 3.64 2 5 2 C5 2.66 5 3.32 5 4 C3.68 4 2.36 4 1 4 C0.67 5.65 0.34 7.3 0 9 C3.3 9 6.6 9 10 9 C9.01 10.485 9.01 10.485 8 12 C5.3984375 12.29296875 5.3984375 12.29296875 2.375 12.1875 C0.87066406 12.14689453 0.87066406 12.14689453 -0.6640625 12.10546875 C-1.43492187 12.07066406 -2.20578125 12.03585937 -3 12 C-3 9.36 -3 6.72 -3 4 C-2.34 4 -1.68 4 -1 4 C-0.67 2.68 -0.34 1.36 0 0 Z " fill="#4279B1" transform="translate(631,586)"/>
<path d="M0 0 C-0.66 2.97 -1.32 5.94 -2 9 C-3.32 9.33 -4.64 9.66 -6 10 C-5.67 8.35 -5.34 6.7 -5 5 C-5.58007812 5.22816406 -6.16015625 5.45632813 -6.7578125 5.69140625 C-11.57455796 7.46390499 -14.88474517 8.44276418 -20 7 C-17.18333306 5.12222204 -15.26813641 4.38697308 -12.0625 3.5 C-9.51144453 2.79201477 -7.22815942 2.11721952 -4.87109375 0.90625 C-3 0 -3 0 0 0 Z " fill="#F3F0F3" transform="translate(781,583)"/>
<path d="M0 0 C2.25245881 2.68841859 3.88213958 4.64641875 5 8 C7.97 8 10.94 8 14 8 C13.67 7.01 13.34 6.02 13 5 C14.32 5 15.64 5 17 5 C17.66 6.65 18.32 8.3 19 10 C16.41414795 10.16236745 13.83848046 10.28095486 11.25 10.375 C10.15558594 10.45041016 10.15558594 10.45041016 9.0390625 10.52734375 C6.890625 10.5859375 6.890625 10.5859375 3 10 C0.46875 7.125 0.46875 7.125 -1 4 C-0.75 1.625 -0.75 1.625 0 0 Z " fill="#407F49" transform="translate(763,543)"/>
<path d="M0 0 C0.66 0 1.32 0 2 0 C2.19647038 2.68711024 2.38239615 5.37428331 2.5625 8.0625 C2.61857422 8.81466797 2.67464844 9.56683594 2.73242188 10.34179688 C3.04000617 15.07859502 2.83807173 19.32542212 2 24 C4.64 24 7.28 24 10 24 C10 24.33 10 24.66 10 25 C6.7 25 3.4 25 0 25 C0 16.75 0 8.5 0 0 Z " fill="#35743A" transform="translate(733,527)"/>
<path d="M0 0 C0.66 0 1.32 0 2 0 C2.33 1.98 2.66 3.96 3 6 C1.02 6.33 -0.96 6.66 -3 7 C-3 7.66 -3 8.32 -3 9 C-3.99 9.33 -4.98 9.66 -6 10 C-6.99 11.485 -6.99 11.485 -8 13 C-8.66 13 -9.32 13 -10 13 C-9.46884894 8.48521602 -7.63379708 5.65333143 -5 2 C-3.68 2.33 -2.36 2.66 -1 3 C-0.67 2.01 -0.34 1.02 0 0 Z " fill="#9FBBD5" transform="translate(480,585)"/>
<path d="M0 0 C6.27 0 12.54 0 19 0 C19 0.99 19 1.98 19 3 C12.73 3 6.46 3 0 3 C0 2.01 0 1.02 0 0 Z " fill="#ECECEF" transform="translate(751,597)"/>
<path d="M0 0 C2 2 2 2 2 6 C0.35 6 -1.3 6 -3 6 C-3 6.99 -3 7.98 -3 9 C-4.32 9 -5.64 9 -7 9 C-7.33 10.32 -7.66 11.64 -8 13 C-8.99 13 -9.98 13 -11 13 C-10.45276317 9.62537285 -9.9451 7.91765 -8 5 C-6.7934375 4.7834375 -6.7934375 4.7834375 -5.5625 4.5625 C-2.84165613 4.23033068 -2.84165613 4.23033068 -1.1875 1.9375 C-0.795625 1.298125 -0.40375 0.65875 0 0 Z " fill="#4D80B5" transform="translate(698,585)"/>
<path d="M0 0 C1.32 0.33 2.64 0.66 4 1 C4.33 2.32 4.66 3.64 5 5 C-0.15709623 9.20710482 -2.28207197 10.12440607 -9 10 C-9 9.01 -9 8.02 -9 7 C-6.03 6.34 -3.06 5.68 0 5 C0 3.35 0 1.7 0 0 Z " fill="#4B7FB2" transform="translate(560,589)"/>
<path d="M0 0 C0.99 0.33 1.98 0.66 3 1 C1.68 6.94 0.36 12.88 -1 19 C-1.66 19 -2.32 19 -3 19 C-3.23063489 12.77285803 -2.61194704 7.03597685 -1 1 C-0.67 0.67 -0.34 0.34 0 0 Z " fill="#4E7BB0" transform="translate(685,579)"/>
<path d="M0 0 C4.29 0.33 8.58 0.66 13 1 C13 2.32 13 3.64 13 5 C8.71 5 4.42 5 0 5 C0 3.35 0 1.7 0 0 Z " fill="#AAABB0" transform="translate(344,584)"/>
<path d="M0 0 C5.94479629 -0.07401579 11.88932593 -0.12853813 17.83447266 -0.16479492 C19.85795766 -0.17990526 21.8814098 -0.20039437 23.90478516 -0.22631836 C26.80900165 -0.26260328 29.71278615 -0.27970355 32.6171875 -0.29296875 C33.52556366 -0.30845261 34.43393982 -0.32393646 35.36984253 -0.33988953 C36.21056305 -0.34011612 37.05128357 -0.34034271 37.91748047 -0.34057617 C39.03000687 -0.35056892 39.03000687 -0.35056892 40.16500854 -0.36076355 C40.77055573 -0.24171158 41.37610291 -0.12265961 42 0 C42.66 0.99 43.32 1.98 44 3 C42.02 3.99 42.02 3.99 40 5 C40 4.01 40 3.02 40 2 C20.2 1.505 20.2 1.505 0 1 C0 0.67 0 0.34 0 0 Z " fill="#E7EAF0" transform="translate(272,585)"/>
<path d="M0 0 C0.66 1.32 1.32 2.64 2 4 C1.01 4 0.02 4 -1 4 C-4.71832669 4.31645334 -6.52024163 4.58336773 -9.375 7.0625 C-9.91125 7.701875 -10.4475 8.34125 -11 9 C-11.75 7.25 -11.75 7.25 -12 5 C-8.49221269 0.61526586 -5.45727363 -0.14749388 0 0 Z " fill="#5B86AD" transform="translate(736,579)"/>
<path d="M0 0 C1.134375 0.020625 2.26875 0.04125 3.4375 0.0625 C3.4375 1.3825 3.4375 2.7025 3.4375 4.0625 C-2.3125 7.0625 -2.3125 7.0625 -4.5625 7.0625 C-4.60504356 5.06295254 -4.60330783 3.06208364 -4.5625 1.0625 C-3.5625 0.0625 -3.5625 0.0625 0 0 Z " fill="#F0F3F6" transform="translate(523.5625,581.9375)"/>
<path d="M0 0 C1.7074998 1.28062485 3.37373596 2.61767557 5 4 C5 4.66 5 5.32 5 6 C-0.61 6 -6.22 6 -12 6 C-12 5.34 -12 4.68 -12 4 C-8.04 4 -4.08 4 0 4 C0 2.68 0 1.36 0 0 Z " fill="#478253" transform="translate(666,547)"/>
<path d="M0 0 C0.66 0 1.32 0 2 0 C1.71617054 1.75128818 1.42260471 3.50100003 1.125 5.25 C0.96257813 6.22453125 0.80015625 7.1990625 0.6328125 8.203125 C0.05144152 10.77264117 -0.70840265 12.72071056 -2 15 C-2.99 14.34 -3.98 13.68 -5 13 C-4.55005243 11.20620902 -4.08975857 9.41501072 -3.625 7.625 C-3.36976563 6.62726562 -3.11453125 5.62953125 -2.8515625 4.6015625 C-2 2 -2 2 0 0 Z " fill="#5E8BB3" transform="translate(661,579)"/>
<path d="M0 0 C0.33 0 0.66 0 1 0 C1 9.9 1 19.8 1 30 C0.67 30 0.34 30 0 30 C-0.33 22.08 -0.66 14.16 -1 6 C-1.99 6.99 -2.98 7.98 -4 9 C-2.94124926 5.59687262 -1.99097846 2.98646769 0 0 Z " fill="#E5E7EC" transform="translate(430,523)"/>
<path d="M0 0 C0.66 0 1.32 0 2 0 C1.85890014 2.10448938 1.71195825 4.2085877 1.5625 6.3125 C1.48128906 7.48425781 1.40007813 8.65601563 1.31640625 9.86328125 C1 13 1 13 0 16 C-0.66 16 -1.32 16 -2 16 C-2.20413361 10.26157749 -2.27141454 5.39460953 0 0 Z " fill="#4A7DAE" transform="translate(672,582)"/>
<path d="M0 0 C1 1 1 1 1.0625 3.5625 C1.041875 4.366875 1.02125 5.17125 1 6 C0.01 6.33 -0.98 6.66 -2 7 C-2 5.68 -2 4.36 -2 3 C-3.98 3.99 -5.96 4.98 -8 6 C-8 4.68 -8 3.36 -8 2 C-4.77786243 -0.14809171 -3.72224599 -0.29386153 0 0 Z " fill="#4878A8" transform="translate(469,579)"/>
<path d="M0 0 C1.98 0 3.96 0 6 0 C2.43679155 5.09210286 -1.04741286 9.22660027 -6 13 C-6.33 12.34 -6.66 11.68 -7 11 C-5.6875 9 -5.6875 9 -4 7 C-3.01 7 -2.02 7 -1 7 C-0.67 4.69 -0.34 2.38 0 0 Z " fill="#449046" transform="translate(662,499)"/>
<path d="M0 0 C1.98 0 3.96 0 6 0 C6.33 1.32 6.66 2.64 7 4 C3.77208445 6.1519437 2.71599191 6.20086443 -1 6 C-0.67 4.02 -0.34 2.04 0 0 Z " fill="#EDF1F5" transform="translate(432,582)"/>
<path d="M0 0 C0.99 0.33 1.98 0.66 3 1 C1.17251097 3.46313739 -0.22976216 4.83428618 -3.26953125 5.48828125 C-5.51479346 5.72518293 -7.74455578 5.90361349 -10 6 C-10 5.01 -10 4.02 -10 3 C-6.97265625 2.26757812 -6.97265625 2.26757812 -3.9453125 1.53515625 C-1.9414343 1.05153008 -1.9414343 1.05153008 0 0 Z " fill="#5282B5" transform="translate(621,593)"/>
<path d="M0 0 C0.33 0.66 0.66 1.32 1 2 C0.07456291 3.34173403 -0.86577405 4.67320159 -1.8125 6 C-2.33457031 6.7425 -2.85664063 7.485 -3.39453125 8.25 C-3.92433594 8.8275 -4.45414062 9.405 -5 10 C-5.99 10 -6.98 10 -8 10 C-8 8.02 -8 6.04 -8 4 C-6.68 4.33 -5.36 4.66 -4 5 C-3.566875 4.0409375 -3.566875 4.0409375 -3.125 3.0625 C-2 1 -2 1 0 0 Z " fill="#4177AB" transform="translate(506,585)"/>
<path d="M0 0 C0.04241723 2.33294775 0.04092937 4.66702567 0 7 C-1 8 -1 8 -4.0625 8.0625 C-5.031875 8.041875 -6.00125 8.02125 -7 8 C-3.8 0 -3.8 0 0 0 Z " fill="#B4BBC1" transform="translate(776,594)"/>
<path d="M0 0 C0.66 0.33 1.32 0.66 2 1 C1.01 4.96 0.02 8.92 -1 13 C-1.99 13 -2.98 13 -4 13 C-3.71812064 11.20676747 -3.4241719 9.41542874 -3.125 7.625 C-2.96257813 6.62726562 -2.80015625 5.62953125 -2.6328125 4.6015625 C-2 2 -2 2 0 0 Z " fill="#4D82B2" transform="translate(648,585)"/>
<path d="M0 0 C5.55044635 1.00917206 11.04355934 2.22439323 16 5 C15.67 5.33 15.34 5.66 15 6 C9.33124828 5.60905161 5.11097244 4.44900763 0 2 C0 1.34 0 0.68 0 0 Z " fill="#ADAFB4" transform="translate(749,581)"/>
<path d="M0 0 C0.66 0 1.32 0 2 0 C1.39174965 4.34464536 0.73832608 8.67551867 0 13 C-0.33 12.34 -0.66 11.68 -1 11 C-1.66 11 -2.32 11 -3 11 C-2.25 3.375 -2.25 3.375 0 0 Z " fill="#5780B0" transform="translate(712,579)"/>
<path d="M0 0 C-4.51368168 3.81926912 -9.09749318 5.34720628 -15 5 C-11.36209658 -0.45685513 -6.16592088 -0.24663684 0 0 Z " fill="#AFB2B4" transform="translate(780,582)"/>
<path d="M0 0 C6.4 -0.36923077 6.4 -0.36923077 9.4375 1.5 C9.953125 1.995 10.46875 2.49 11 3 C10.67 4.32 10.34 5.64 10 7 C9.34 6.67 8.68 6.34 8 6 C8 5.34 8 4.68 8 4 C6.865625 3.71125 5.73125 3.4225 4.5625 3.125 C3.386875 2.75375 2.21125 2.3825 1 2 C0.67 1.34 0.34 0.68 0 0 Z " fill="#4A78AE" transform="translate(597,588)"/>
<path d="M0 0 C0.66 0 1.32 0 2 0 C2.17835515 4.54805635 1.99785435 7.8794254 0 12 C-0.66 12 -1.32 12 -2 12 C-1.85962479 10.18706911 -1.71255111 8.3746557 -1.5625 6.5625 C-1.48128906 5.55316406 -1.40007813 4.54382813 -1.31640625 3.50390625 C-1 1 -1 1 0 0 Z " fill="#4F78AD" transform="translate(547,580)"/>
<path d="M0 0 C2.64 0 5.28 0 8 0 C7.401875 0.33 6.80375 0.66 6.1875 1 C3.10071812 3.82220057 2.23011277 7.07668579 1 11 C0.67 11 0.34 11 0 11 C0 7.37 0 3.74 0 0 Z " fill="#3F6EA3" transform="translate(516,580)"/>
<path d="M0 0 C5.94 0 11.88 0 18 0 C18 1.65 18 3.3 18 5 C16.68 5 15.36 5 14 5 C14 4.01 14 3.02 14 2 C7.07 1.505 7.07 1.505 0 1 C0 0.67 0 0.34 0 0 Z " fill="#AEAFB3" transform="translate(339,598)"/>
<path d="M0 0 C4.95 0.99 4.95 0.99 10 2 C10.33 3.32 10.66 4.64 11 6 C9.3501725 5.57781184 7.70516335 5.13675575 6.0625 4.6875 C5.14597656 4.44386719 4.22945312 4.20023438 3.28515625 3.94921875 C2.53105469 3.63597656 1.77695312 3.32273437 1 3 C0.67 2.01 0.34 1.02 0 0 Z " fill="#4A7AAE" transform="translate(725,587)"/>
<path d="M0 0 C0.99 0 1.98 0 3 0 C2.55005243 1.79379098 2.08975857 3.58498928 1.625 5.375 C1.36976563 6.37273438 1.11453125 7.37046875 0.8515625 8.3984375 C0 11 0 11 -2 13 C-2.05447047 11.58376784 -2.09300508 10.16691809 -2.125 8.75 C-2.14820313 7.96109375 -2.17140625 7.1721875 -2.1953125 6.359375 C-1.9828378 3.79268059 -1.28654105 2.2083933 0 0 Z " fill="#4C78AE" transform="translate(535,580)"/>
<path d="M0 0 C0.66 1.32 1.32 2.64 2 4 C1.54625 4.5775 1.0925 5.155 0.625 5.75 C-0.84113516 7.7800333 -1.94857784 9.73539843 -3 12 C-3 11.01 -3 10.02 -3 9 C-3.66 9 -4.32 9 -5 9 C-3.7508258 5.54074837 -2.32472205 2.85306797 0 0 Z " fill="#588AB1" transform="translate(459,582)"/>
<path d="M0 0 C0.66 0 1.32 0 2 0 C2.22304441 1.74818591 2.4278645 3.49870323 2.625 5.25 C2.74101563 6.22453125 2.85703125 7.1990625 2.9765625 8.203125 C3.00112537 11.13429393 2.5312717 12.54528964 1 15 C0.67 15 0.34 15 0 15 C0 10.05 0 5.1 0 0 Z " fill="#3C7E3C" transform="translate(733,527)"/>
<path d="M0 0 C-0.33 1.32 -0.66 2.64 -1 4 C-3.31 4.33 -5.62 4.66 -8 5 C-7.625 3.0625 -7.625 3.0625 -7 1 C-4.53721199 -0.231394 -2.7204945 -0.07159196 0 0 Z " fill="#AAAEB0" transform="translate(776,588)"/>
<path d="M0 0 C0 0.33 0 0.66 0 1 C-5.31329355 3.08989546 -9.28728072 4.6112798 -15 3 C-9.84110855 -0.43926097 -6.07788122 -1.44711458 0 0 Z " fill="#E2E4E3" transform="translate(776,587)"/>
<path d="M0 0 C0 3 0 3 -1 6 C-2.2065625 6.4640625 -2.2065625 6.4640625 -3.4375 6.9375 C-6.14157493 7.76608159 -6.14157493 7.76608159 -7.3125 10.125 C-7.539375 10.74375 -7.76625 11.3625 -8 12 C-8.66 11.67 -9.32 11.34 -10 11 C-6.7 7.37 -3.4 3.74 0 0 Z " fill="#34669C" transform="translate(249,477)"/>
<path d="M0 0 C6.15234375 -0.09765625 6.15234375 -0.09765625 8 0 C9 1 9 1 9.0625 3.5625 C9.041875 4.366875 9.02125 5.17125 9 6 C8.34 5.67 7.68 5.34 7 5 C7 4.34 7 3.68 7 3 C4.36 2.67 1.72 2.34 -1 2 C-0.67 1.34 -0.34 0.68 0 0 Z " fill="#4274A8" transform="translate(433,580)"/>
<path d="M0 0 C0.66 0.99 1.32 1.98 2 3 C-0.65654657 6.73884332 -2.58110387 8.64978174 -7 10 C-5.33248852 6.05860922 -2.77289351 3.2107188 0 0 Z " fill="#3C5F99" transform="translate(236,491)"/>
<path d="M0 0 C0 0.66 0 1.32 0 2 C-2.52475462 3.26237731 -4.31200466 3.09856404 -7.125 3.0625 C-8.03507813 3.05347656 -8.94515625 3.04445313 -9.8828125 3.03515625 C-10.58148437 3.02355469 -11.28015625 3.01195312 -12 3 C-8.48214012 -0.51785988 -4.80656342 -0.10924008 0 0 Z " fill="#4077AF" transform="translate(591,595)"/>
<path d="M0 0 C0.66 0 1.32 0 2 0 C2 0.99 2 1.98 2 3 C1.34 3 0.68 3 0 3 C-0.33 4.65 -0.66 6.3 -1 8 C-1.99 8.33 -2.98 8.66 -4 9 C-3.4739075 5.21213403 -2.61896089 2.82847776 0 0 Z " fill="#417AAF" transform="translate(474,589)"/>
<path d="M0 0 C0.99 0 1.98 0 3 0 C2.67 3.3 2.34 6.6 2 10 C1.34 10 0.68 10 0 10 C-0.74926071 6.33694766 -1.2380014 3.57644848 0 0 Z " fill="#4976A9" transform="translate(509,579)"/>
<path d="M0 0 C1.32 0.33 2.64 0.66 4 1 C2.73742767 2.17560179 1.46462916 3.34022865 0.1875 4.5 C-0.87404297 5.47453125 -0.87404297 5.47453125 -1.95703125 6.46875 C-4 8 -4 8 -7 8 C-4.69 5.36 -2.38 2.72 0 0 Z " fill="#393E7B" transform="translate(299,499)"/>
<path d="M0 0 C0.33 0 0.66 0 1 0 C1 2.31 1 4.62 1 7 C-0.32 6.67 -1.64 6.34 -3 6 C-3.33 4.35 -3.66 2.7 -4 1 C-2.68 1.33 -1.36 1.66 0 2 C0 1.34 0 0.68 0 0 Z " fill="#3C78AD" transform="translate(658,591)"/>
<path d="M0 0 C-0.33 0.66 -0.66 1.32 -1 2 C-3.3140622 2.73075648 -5.64828869 3.40138258 -8 4 C-8 3.01 -8 2.02 -8 1 C-5.07175348 0.02391783 -3.04386724 -0.08226668 0 0 Z M-9 4 C-6.875 4.9375 -6.875 4.9375 -5 6 C-6.875 6.625 -6.875 6.625 -9 7 C-9.66 6.34 -10.32 5.68 -11 5 C-10.34 4.67 -9.68 4.34 -9 4 Z " fill="#B8BDBC" transform="translate(773,582)"/>
<path d="M0 0 C0 0.66 0 1.32 0 2 C-1.11375 2.474375 -2.2275 2.94875 -3.375 3.4375 C-5.26710994 4.25306463 -7.15712709 5.07856355 -9 6 C-9 4.68 -9 3.36 -9 2 C-5.5647952 -0.29013653 -4.014669 -0.17842973 0 0 Z " fill="#4D78AB" transform="translate(400,580)"/>
<path d="M0 0 C1.9451 2.91765 2.45276317 4.62537285 3 8 C1.0625 7.6875 1.0625 7.6875 -1 7 C-1.33 6.01 -1.66 5.02 -2 4 C-2.66 3.34 -3.32 2.68 -4 2 C-2.68 2 -1.36 2 0 2 C0 1.34 0 0.68 0 0 Z " fill="#5386B8" transform="translate(703,590)"/>
<path d="M0 0 C0 0.66 0 1.32 0 2 C-3.21451269 3.60725635 -6.43612536 3.05748185 -10 3 C-7.29536552 -0.8183075 -4.37912428 -0.24787496 0 0 Z " fill="#4C7AAF" transform="translate(644,579)"/>
<path d="M0 0 C-1.44390925 3.80666984 -3.34952803 5.26602582 -7 7 C-7.66 6.67 -8.32 6.34 -9 6 C-8.07213211 4.99105628 -7.13231567 3.99309093 -6.1875 3 C-5.66542969 2.443125 -5.14335937 1.88625 -4.60546875 1.3125 C-3 0 -3 0 0 0 Z " fill="#517EAC" transform="translate(388,579)"/>
<path d="M0 0 C0.66 1.32 1.32 2.64 2 4 C1.01 5.32 0.02 6.64 -1 8 C-2.32 7.67 -3.64 7.34 -5 7 C-3.35 4.69 -1.7 2.38 0 0 Z " fill="#4F7CB3" transform="translate(696,582)"/>
<path d="M0 0 C2 2 2 2 2 6 C0.02 6 -1.96 6 -4 6 C-2.68 4.02 -1.36 2.04 0 0 Z " fill="#DAE3EC" transform="translate(698,585)"/>
<path d="M0 0 C0 0.66 0 1.32 0 2 C-2.95664519 3.4783226 -5.74229737 3.06032783 -9 3 C-9 2.34 -9 1.68 -9 1 C-5.8035914 -0.06546953 -3.34252724 -0.07427838 0 0 Z " fill="#527AAC" transform="translate(594,579)"/>
<path d="M0 0 C0.93065133 2.60582371 1.14917407 3.64198224 0.0625 6.25 C-0.4634375 7.11625 -0.4634375 7.11625 -1 8 C-1.99 8 -2.98 8 -4 8 C-3.67 6.02 -3.34 4.04 -3 2 C-2.01 2.33 -1.02 2.66 0 3 C0 2.01 0 1.02 0 0 Z " fill="#5D95BB" transform="translate(378,590)"/>
<path d="M0 0 C0 3 0 3 -1.4375 4.5 C-1.953125 4.995 -2.46875 5.49 -3 6 C-3.33 6.99 -3.66 7.98 -4 9 C-4.66 9 -5.32 9 -6 9 C-6 7.35 -6 5.7 -6 4 C-5.01 4 -4.02 4 -3 4 C-3 3.34 -3 2.68 -3 2 C-2.01 1.34 -1.02 0.68 0 0 Z " fill="#3872AA" transform="translate(382,584)"/>
<path d="M0 0 C1.85776765 3.13498292 2.20140476 5.37471432 2 9 C1.34 9 0.68 9 0 9 C-0.33 9.66 -0.66 10.32 -1 11 C-1.14285714 3.57142857 -1.14285714 3.57142857 0 0 Z " fill="#5D87B3" transform="translate(498,580)"/>
<path d="M0 0 C0.99 0.33 1.98 0.66 3 1 C1.02 2.98 -0.96 4.96 -3 7 C-3.99 6.67 -4.98 6.34 -6 6 C-4.02 4.02 -2.04 2.04 0 0 Z " fill="#449146" transform="translate(652,499)"/>
<path d="M0 0 C2.31 0 4.62 0 7 0 C6.67 0.99 6.34 1.98 6 3 C4.02 3 2.04 3 0 3 C0 2.01 0 1.02 0 0 Z " fill="#517EB3" transform="translate(723,596)"/>
<path d="M0 0 C1.24546405 2.49092811 0.7767578 3.41080733 0 6 C0.66 6.33 1.32 6.66 2 7 C0.68 7.33 -0.64 7.66 -2 8 C-2.6875 5.6875 -2.6875 5.6875 -3 3 C-1.5625 1.1875 -1.5625 1.1875 0 0 Z " fill="#5D8AB6" transform="translate(598,581)"/>
<path d="M0 0 C3.3 0 6.6 0 10 0 C10 0.99 10 1.98 10 3 C5.06071112 3.3367697 4.21507278 3.16130459 0 0 Z " fill="#6589B4" transform="translate(518,579)"/>
<path d="M0 0 C3.3 0 6.6 0 10 0 C9.01 1.485 9.01 1.485 8 3 C6.68 3 5.36 3 4 3 C4 2.34 4 1.68 4 1 C2.68 0.67 1.36 0.34 0 0 Z " fill="#5987B8" transform="translate(631,595)"/>
<path d="M0 0 C1.5 1.375 1.5 1.375 3 3 C3 3.66 3 4.32 3 5 C4.32 5.33 5.64 5.66 7 6 C4.69 6.66 2.38 7.32 0 8 C0 5.36 0 2.72 0 0 Z " fill="#6091B9" transform="translate(578,590)"/>
<path d="M0 0 C0.99 1.32 1.98 2.64 3 4 C-0.75 7 -0.75 7 -3 7 C-3 6.01 -3 5.02 -3 4 C-2.34 3.67 -1.68 3.34 -1 3 C-0.67 2.01 -0.34 1.02 0 0 Z " fill="#5082B2" transform="translate(439,583)"/>
<path d="M0 0 C2.31 0.33 4.62 0.66 7 1 C6.67 2.32 6.34 3.64 6 5 C3.5625 4.1875 3.5625 4.1875 1 3 C0.67 2.01 0.34 1.02 0 0 Z " fill="#5D89AF" transform="translate(559,579)"/>
<path d="M0 0 C1.32 0.33 2.64 0.66 4 1 C1.03 3.475 1.03 3.475 -2 6 C-2.33 5.34 -2.66 4.68 -3 4 C-2.01 2.68 -1.02 1.36 0 0 Z " fill="#539557" transform="translate(658,506)"/>
<path d="M0 0 C1.32 0 2.64 0 4 0 C4 0.66 4 1.32 4 2 C2.04072937 3.7143618 0.04119788 5.38405168 -2 7 C-1.125 2.25 -1.125 2.25 0 0 Z " fill="#3A508E" transform="translate(199,503)"/>
<path d="M0 0 C0.33 0.66 0.66 1.32 1 2 C2.32 2 3.64 2 5 2 C5 2.66 5 3.32 5 4 C3.68 4 2.36 4 1 4 C0.67 4.66 0.34 5.32 0 6 C-0.38218767 4.34385343 -0.71395102 2.67542976 -1 1 C-0.67 0.67 -0.34 0.34 0 0 Z " fill="#3D72AB" transform="translate(631,586)"/>
<path d="M0 0 C0.33 0 0.66 0 1 0 C1 1.98 1 3.96 1 6 C0.34 6 -0.32 6 -1 6 C-2.62514468 7.45833358 -2.62514468 7.45833358 -4 9 C-2.94124926 5.59687262 -1.99097846 2.98646769 0 0 Z " fill="#D9DAE6" transform="translate(430,523)"/>
<path d="M0 0 C2 3 2 3 2 6 C0.68 6 -0.64 6 -2 6 C-2 4.68 -2 3.36 -2 2 C-1.34 2 -0.68 2 0 2 C0 1.34 0 0.68 0 0 Z " fill="#5086B5" transform="translate(486,592)"/>
<path d="M0 0 C2.15377564 2.62198774 3.40072174 4.64404172 4 8 C3.01 8.66 2.02 9.32 1 10 C-0.1577506 6.52674819 -0.06866652 3.63932552 0 0 Z " fill="#5F8DB9" transform="translate(532,587)"/>
<path d="M0 0 C1.27875 -0.061875 2.5575 -0.12375 3.875 -0.1875 C4.95394531 -0.23970703 4.95394531 -0.23970703 6.0546875 -0.29296875 C6.69664062 -0.19628906 7.33859375 -0.09960938 8 0 C8.66 0.99 9.32 1.98 10 3 C8.02 3.99 8.02 3.99 6 5 C6 4.01 6 3.02 6 2 C3.03 1.505 3.03 1.505 0 1 C0 0.67 0 0.34 0 0 Z " fill="#D7CFDE" transform="translate(306,585)"/>
</svg>
